<svg xmlns="http://www.w3.org/2000/svg" viewBox="0 0 480 600" width="480" height="600"><defs><filter id="texture"><feTurbulence type="fractalNoise" baseFrequency=".6" numOctaves="3" stitchTiles="stitch"/><feColorMatrix type="saturate" values="0"/><feComponentTransfer><feFuncA type="linear" slope=".045"/></feComponentTransfer></filter><radialGradient id="glow"><stop stop-color="#fff9e9" stop-opacity=".8"/><stop offset="1" stop-color="#fff9e9" stop-opacity="0"/></radialGradient></defs><path fill="#777487" d="M0 0h480v600H0z"/><circle cx="265" cy="218" r="97" fill="#efe0bd"/><circle cx="303" cy="184" r="94" fill="#777487"/><g fill="#f4e7ce"><path d="M103 173l5 14 14 5-14 5-5 14-5-14-14-5 14-5ZM374 329l5 14 14 5-14 5-5 14-5-14-14-5 14-5ZM193 369l4 11 11 4-11 4-4 11-4-11-11-4 11-4Z"/><circle cx="346" cy="96" r="3"/><circle cx="161" cy="106" r="3"/><circle cx="75" cy="323" r="3"/><circle cx="299" cy="402" r="3"/><circle cx="411" cy="239" r="3"/></g><path d="M0 450q61-70 120-4 55-92 134-26 74-63 127 17 73-43 99 22v141H0Z" fill="#9690a2"/><path d="M0 517q62-39 120-10 63-65 148-22 110-73 212 20v95H0Z" fill="#b4a6b0"/><path d="M0 0h480v600H0z" filter="url(#texture)" opacity=".7"/></svg>